<svg width="480" height="360" viewBox="0 0 480 360" fill="none" xmlns="http://www.w3.org/2000/svg">
  <defs>
    <linearGradient id="g1" x1="0" y1="0" x2="1" y2="1">
      <stop offset="0%" stop-color="#3b82f6"/>
      <stop offset="100%" stop-color="#22d3ee"/>
    </linearGradient>
  </defs>
  <rect x="0" y="0" width="480" height="360" rx="24" fill="#ffffff"/>
  <g opacity="0.08">
    <circle cx="420" cy="40" r="80" fill="url(#g1)"/>
    <circle cx="60" cy="320" r="120" fill="url(#g1)"/>
  </g>
  <g>
    <rect x="40" y="40" width="200" height="140" rx="16" fill="#e0f2fe"/>
    <rect x="48" y="52" width="70" height="10" rx="5" fill="#38bdf8"/>
    <rect x="48" y="72" width="160" height="8" rx="4" fill="#bae6fd"/>
    <rect x="48" y="92" width="140" height="8" rx="4" fill="#bae6fd"/>
    <rect x="48" y="112" width="120" height="8" rx="4" fill="#bae6fd"/>
  </g>
  <g>
    <rect x="260" y="40" width="180" height="140" rx="16" fill="#fee2e2"/>
    <circle cx="300" cy="90" r="24" fill="#ef4444"/>
    <rect x="336" y="80" width="90" height="10" rx="5" fill="#fecaca"/>
    <rect x="336" y="100" width="70" height="10" rx="5" fill="#fecaca"/>
  </g>
  <g>
    <rect x="40" y="200" width="400" height="120" rx="16" fill="#f1f5f9"/>
    <path d="M80 260 C 120 220, 180 220, 220 260 S 320 300, 360 260" stroke="#0ea5e9" stroke-width="6" fill="none"/>
    <circle cx="160" cy="240" r="6" fill="#22c55e"/>
    <circle cx="260" cy="270" r="6" fill="#f59e0b"/>
    <circle cx="340" cy="250" r="6" fill="#ef4444"/>
  </g>
  <g>
    <path d="M420 260 l-38 -22 v44 z" fill="#0ea5e9"/>
    <rect x="400" y="245" width="10" height="30" fill="#0ea5e9"/>
  </g>
  <g>
    <path d="M120 180 l40 -24 l40 24 l-40 24 z" fill="#22d3ee" opacity="0.8"/>
    <path d="M140 172 l20 -12 l20 12 l-20 12 z" fill="#3b82f6"/>
  </g>
  <g>
    <path d="M240 180 a30 30 0 1 0 60 0 a30 30 0 1 0 -60 0" fill="#e0e7ff"/>
    <path d="M260 168 l12 12 l20 -20" stroke="#10b981" stroke-width="6" fill="none" stroke-linecap="round"/>
  </g>
</svg>